<?xml version="1.0" encoding="UTF-8"?>
<svg width="499px" height="247px" viewBox="0 0 499 247" version="1.1" xmlns="http://www.w3.org/2000/svg" xmlns:xlink="http://www.w3.org/1999/xlink">
    <!-- Generator: Sketch 43 (38999) - http://www.bohemiancoding.com/sketch -->
    <title>Untitled 2</title>
    <desc>Created with Sketch.</desc>
    <defs></defs>
    <g id="Page-1" stroke="none" stroke-width="1" fill="none" fill-rule="evenodd">
        <path d="M86.7625,137.35 C101.84375,137.35 113.1025,140.13125 120.225,145.6125 C127.275,151.04 132.14125,160.44125 134.6925,173.555 C137.07125,185.8125 136.165,194.37125 132,198.99 C127.74125,203.7075 118.53375,206.1 104.63375,206.1 L80.53375,206.1 L67.17125,137.35 L86.7625,137.35 Z M7.93375,52.6625 C6.815,52.6625 5.7525,53.1625 5.04125,54.0275 C4.32875,54.89 4.04125,56.0275 4.25375,57.1275 L39.66375,239.315 C40.01375,241.0775 41.55125,242.35 43.35125,242.35 L119.66375,242.35 C143.65125,242.35 161.50125,235.8375 172.72625,222.99125 C184.01375,210.07875 187.48875,192.02625 183.08625,169.34125 C181.2925,160.0975 178.205,151.51375 173.91125,143.82875 C169.61125,136.135 163.93125,129.01625 157.02375,122.66625 C148.7375,114.925 139.385,109.3125 129.2125,106.0125 C119.2125,102.75 106.365,101.1 91.03,101.1 L60.1275,101.1 L51.3025,55.6975 C50.96,53.935 49.4175,52.6625 47.6225,52.6625 L7.935,52.6625 L7.93375,52.6625 Z" id="path3486" fill="#000000" fill-rule="nonzero" transform="translate(94.559134, 147.506250) scale(-1, 1) rotate(-180.000000) translate(-94.559134, -147.506250) "></path>
        <path d="M83.625,202.35 L104.635,202.35 C121.41,202.35 127.23875,198.66875 129.21875,196.475 C132.50375,192.8325 133.12375,185.1525 131.0125,174.26625 C128.64,162.07875 124.2425,153.4375 117.94,148.585 C111.4875,143.6175 100.9975,141.1 86.765,141.1 L71.72,141.1 L83.625,202.35 Z M119.6625,246.1 L43.345,246.1 C39.755,246.1 36.67,243.555 35.9825,240.03125 L0.57375,57.84375 C0.13625,55.64375 0.72375,53.36875 2.13625,51.64125 C3.56125,49.9125 5.68625,48.9125 7.92375,48.9125 L47.61125,48.9125 C51.19875,48.9125 54.28625,51.4575 54.97375,54.98125 L63.2125,97.35 L91.025,97.35 C106.75,97.35 119.99625,99.065 130.375,102.44625 C141.05,105.915 150.875,111.79625 159.57,119.92625 C166.7575,126.55125 172.6825,133.97625 177.17,142.00125 C181.6575,150.02625 184.8825,159.00125 186.75375,168.62625 C191.3975,192.51375 187.625,211.63875 175.54125,225.46375 C163.58375,239.1625 144.78125,246.1 119.66625,246.1 L119.6625,246.1 Z M62.625,133.6 L86.7625,133.6 C102.765,133.6 114.68375,136.6125 122.515,142.6425 C130.3475,148.6725 135.63,158.7375 138.375,172.8375 C141,186.37875 139.805,195.93375 134.7875,201.5 C129.7625,207.06625 119.7125,209.85 104.63375,209.85 L77.4425,209.85 L62.6225,133.6 L62.625,133.6 Z M119.6625,238.6 C142.6225,238.6 159.37125,232.575 169.9,220.525 C180.425,208.4725 183.595,191.65 179.395,170.055 C177.66625,161.15875 174.7425,153.025 170.62625,145.655 C166.51375,138.2825 161.12625,131.54 154.47625,125.425 C146.55125,118.0125 137.75125,112.725 128.06375,109.58375 C118.375,106.42125 106.0375,104.85 91.0375,104.85 L57.0375,104.85 L47.6225,56.4125 L7.935,56.4125 L43.345,238.6 L119.6625,238.6 L119.6625,238.6 Z" id="path3490" fill="#FFFFFF" fill-rule="nonzero" transform="translate(94.554663, 147.506250) scale(-1, 1) rotate(-180.000000) translate(-94.554663, -147.506250) "></path>
        <path d="M274.075,4.225 C272.955,4.225 271.89375,4.725 271.1825,5.59 C270.47,6.4525 270.18,7.59 270.395,8.69 L286.0575,89.3025 C287.5475,96.9675 287.18,102.47 285.02375,104.795 C283.7,106.21625 279.7375,108.6 268.0125,108.6 L239.6375,108.6 L219.94375,7.26 C219.6,5.4975 218.05625,4.225 216.2625,4.225 L176.8875,4.225 C175.7675,4.225 174.70625,4.725 173.99375,5.59 C173.28125,6.4525 172.99375,7.59 173.20625,8.69 L208.61625,190.8775 C208.95875,192.64 210.50375,193.9125 212.2975,193.9125 L251.6725,193.9125 C252.7925,193.9125 253.85375,193.4125 254.56625,192.55 C255.27875,191.68375 255.56625,190.5475 255.35375,189.4475 L246.80875,145.475 L277.3375,145.475 C300.5925,145.475 316.3625,141.375 325.5475,132.94 C334.91,124.335 337.83125,110.5775 334.23125,92.04 L317.75625,7.2625 C317.4125,5.4975 315.87125,4.225 314.075,4.225 L274.075,4.225 Z" id="path3494" fill="#000000" fill-rule="nonzero" transform="translate(254.430613, 99.068750) scale(-1, 1) rotate(-180.000000) translate(-254.430613, -99.068750) "></path>
        <path d="M251.675,197.6625 L212.3,197.6625 C208.70875,197.6625 205.6225,195.1175 204.9375,191.59375 L169.5275,9.40625 C169.1,7.20625 169.6775,4.93125 171.1025,3.20375 C172.5275,1.475 174.65,0.475 176.89,0.475 L216.265,0.475 C219.855,0.475 222.9425,3.02 223.6275,6.54375 L242.73125,104.85 L268.01875,104.85 C279.72125,104.85 282.1775,102.35 282.27625,102.2425 C282.98875,101.48 283.92625,97.9425 282.38875,90.0175 L266.72625,9.405 C266.30125,7.205 266.87625,4.9325 268.30125,3.205 C269.72625,1.475 271.85125,0.475 274.08875,0.475 L314.08875,0.475 C317.67625,0.475 320.76375,3.02 321.45125,6.54375 L337.9125,91.325 C341.78,111.225 338.4725,126.155 328.0875,135.7 C318.1775,144.8 301.5775,149.225 277.3375,149.225 L251.36,149.225 L259.0375,188.73125 C259.4625,190.93125 258.8875,193.20625 257.4625,194.93125 C256.0375,196.6625 253.915,197.6625 251.675,197.6625 M251.675,190.1625 L242.2625,141.725 L277.3375,141.725 C299.41,141.725 314.63375,137.8725 323.0125,130.1775 C331.39125,122.4775 333.9,110.0025 330.5525,92.755 L314.0775,7.975 L274.0775,7.975 L289.74,88.585 C291.52375,97.755 290.86875,104.01 287.77375,107.345 C284.67375,110.68 278.08625,112.35 268.01125,112.35 L236.53625,112.35 L216.24875,7.975 L176.87375,7.975 L212.3,190.1625 L251.675,190.1625" id="path3498" fill="#FFFFFF" fill-rule="nonzero" transform="translate(254.433741, 99.068750) scale(-1, 1) rotate(-180.000000) translate(-254.433741, -99.068750) "></path>
        <path d="M396.5375,137.35 C411.61875,137.35 422.8775,140.13125 430,145.6125 C437.05,151.0375 441.91625,160.44 444.46875,173.555 C446.8475,185.8125 445.94125,194.37125 441.775,198.99 C437.51625,203.7075 428.30875,206.1 414.40875,206.1 L390.30875,206.1 L376.94625,137.35 L396.5375,137.35 Z M317.71,52.6625 C316.59125,52.6625 315.52875,53.1625 314.8175,54.0275 C314.105,54.89 313.815,56.0275 314.03,57.1275 L349.43875,239.315 C349.78875,241.0775 351.32625,242.35 353.12625,242.35 L429.43875,242.35 C453.42625,242.35 471.27625,235.8375 482.50125,222.99125 C493.78875,210.07875 497.26375,192.02875 492.86375,169.34125 C491.07125,160.0975 487.985,151.51375 483.68875,143.82875 C479.38875,136.135 473.71125,129.01625 466.80125,122.66625 C458.5125,114.925 449.16,109.3125 438.9875,106.0125 C428.9875,102.75 416.14,101.1 400.805,101.1 L369.9,101.1 L361.08,55.6975 C360.73625,53.935 359.1925,52.6625 357.3975,52.6625 L317.71,52.6625 Z" id="path3502" fill="#000000" fill-rule="nonzero" transform="translate(404.334728, 147.506250) scale(-1, 1) rotate(-180.000000) translate(-404.334728, -147.506250) "></path>
        <path d="M393.4,202.35 L414.41,202.35 C431.185,202.35 437.01375,198.66875 438.99375,196.475 C442.28125,192.8325 442.9,185.1525 440.7875,174.2675 C438.415,162.08 434.01625,153.4375 427.715,148.585 C421.2625,143.6175 410.7725,141.1 396.54,141.1 L381.49625,141.1 L393.4,202.35 Z M429.4375,246.1 L353.12125,246.1 C349.53125,246.1 346.44625,243.555 345.75875,240.03125 L310.35,57.84375 C309.9225,55.64375 310.5,53.36875 311.925,51.64125 C313.35,49.9125 315.47125,48.9125 317.7125,48.9125 L357.4,48.9125 C360.9875,48.9125 364.075,51.4575 364.7625,54.98125 L372.99375,97.35 L400.80625,97.35 C416.53125,97.35 429.7725,99.065 440.15375,102.44625 C450.82875,105.915 460.65375,111.79625 469.34875,119.92875 C476.53625,126.54125 482.44875,133.96625 486.93625,141.9975 C491.425,150.03125 494.65,158.99 496.525,168.625 C501.16875,192.50625 497.39625,211.62875 485.3125,225.45875 C473.35875,239.155 454.5525,246.1 429.44,246.1 L429.4375,246.1 Z M372.4,133.6 L396.5375,133.6 C412.54,133.6 424.45875,136.6125 432.29,142.6425 C440.125,148.6725 445.405,158.7375 448.15,172.8375 C450.7775,186.37875 449.58125,195.93375 444.5625,201.5 C439.5375,207.06625 429.4875,209.85 414.40875,209.85 L387.2175,209.85 L372.4,133.6 L372.4,133.6 Z M429.4375,238.6 C452.3975,238.6 469.14625,232.575 479.675,220.525 C490.2,208.4725 493.37,191.65 489.17,170.055 C487.44125,161.15875 484.5175,153.025 480.40125,145.655 C476.28875,138.2825 470.90125,131.54 464.25125,125.425 C456.32625,118.0125 447.52625,112.725 437.83875,109.58375 C428.15,106.42125 415.8125,104.85 400.8125,104.85 L366.8125,104.85 L357.4,56.4125 L317.7125,56.4125 L353.12,238.6 L429.4375,238.6 L429.4375,238.6 Z" id="path3506" fill="#FFFFFF" fill-rule="nonzero" transform="translate(404.330474, 147.506250) scale(-1, 1) rotate(-180.000000) translate(-404.330474, -147.506250) "></path>
    </g>
</svg>